# Blender v2.90.1 OBJ File: 'Ludum_Dare48.blend'
# www.blender.org
mtllib Floor_Small_Open_1.0_Collision.mtl
o Floor_Segment_Solid..003_Cylinder.021
v 0.000000 -0.405683 -2.989531
v 0.000000 0.410316 -2.989531
v 0.621559 0.410316 -2.924202
v 0.621559 -0.405683 -2.924202
v 1.215952 0.410316 -2.731072
v 1.215952 -0.405683 -2.731072
v 1.757202 0.410316 -2.418581
v 1.757202 -0.405683 -2.418581
v 2.221654 0.410316 -2.000386
v 2.221654 -0.405683 -2.000386
v 2.589010 0.410316 -1.494765
v 2.589010 -0.405683 -1.494765
v 2.843213 0.410316 -0.923816
v 2.843213 -0.405683 -0.923816
v 2.973154 0.410316 -0.312491
v 2.973154 -0.405683 -0.312491
v 2.973154 0.410316 0.312491
v 2.973154 -0.405683 0.312491
v 2.843212 0.410316 0.923815
v 2.843212 -0.405683 0.923815
v 2.589010 0.410316 1.494765
v 2.589010 -0.405683 1.494765
v 2.221654 0.410316 2.000386
v 2.221654 -0.405683 2.000386
v 1.757202 0.410316 2.418581
v 1.757202 -0.405683 2.418581
v 1.215952 0.410316 2.731071
v 1.215952 -0.405683 2.731071
v 0.621558 0.410316 2.924201
v 0.621558 -0.405683 2.924201
v 0.000000 0.410316 2.989530
v 0.000000 -0.405683 2.989530
v -0.621558 0.410316 2.924201
v -0.621558 -0.405683 2.924201
v -2.843211 0.410316 0.923815
v -2.843211 -0.405683 0.923815
v -2.973152 0.410316 0.312492
v -2.973152 -0.405683 0.312492
v -2.973153 0.410316 -0.312490
v -2.973153 -0.405683 -0.312490
v -2.843212 0.410316 -0.923814
v -2.843212 -0.405683 -0.923814
v -2.589010 0.410316 -1.494763
v -2.589010 -0.405683 -1.494763
v -2.221656 0.410316 -2.000384
v -2.221656 -0.405683 -2.000384
v -1.757205 0.410316 -2.418578
v -1.757205 -0.405683 -2.418578
v -1.215956 0.410316 -2.731070
v -1.215956 -0.405683 -2.731070
v -0.621564 0.410316 -2.924201
v -0.621564 -0.405683 -2.924201
v 0.000002 -0.419221 -7.965703
v 0.000002 0.387612 -7.965703
v 1.656164 0.387612 -7.791634
v 1.656164 -0.419221 -7.791634
v 3.239945 0.387612 -7.277031
v 3.239945 -0.419221 -7.277031
v 4.682123 0.387612 -6.444389
v 4.682123 -0.419221 -6.444389
v 5.919672 0.387612 -5.330096
v 5.919672 -0.419221 -5.330096
v 6.898502 0.387612 -3.982852
v 6.898502 -0.419221 -3.982852
v 7.575834 0.387612 -2.461538
v 7.575834 -0.419221 -2.461538
v 7.922067 0.387612 -0.832644
v 7.922067 -0.419221 -0.832644
v 7.922067 0.387612 0.832642
v 7.922067 -0.419221 0.832642
v 7.575834 0.387612 2.461536
v 7.575834 -0.419221 2.461536
v 6.898501 0.387612 3.982850
v 6.898501 -0.419221 3.982850
v 5.919672 0.387612 5.330093
v 5.919672 -0.419221 5.330093
v 4.682123 0.387612 6.444386
v 4.682123 -0.419221 6.444386
v 3.239944 0.387612 7.277029
v 3.239944 -0.419221 7.277029
v 1.656164 0.387612 7.791630
v 1.656164 -0.419221 7.791630
v 0.000001 0.387612 7.965700
v 0.000001 -0.419221 7.965700
v -1.656161 0.387612 7.791629
v -1.656161 -0.419221 7.791629
v -7.575830 0.387612 2.461536
v -7.575830 -0.419221 2.461536
v -7.922062 0.387612 0.832644
v -7.922062 -0.419221 0.832644
v -7.922063 0.387612 -0.832639
v -7.922063 -0.419221 -0.832639
v -7.575832 0.387612 -2.461532
v -7.575832 -0.419221 -2.461532
v -6.898502 0.387612 -3.982845
v -6.898502 -0.419221 -3.982845
v -5.919675 0.387612 -5.330089
v -5.919675 -0.419221 -5.330089
v -4.682130 0.387612 -6.444383
v -4.682130 -0.419221 -6.444383
v -3.239953 0.387612 -7.277026
v -3.239953 -0.419221 -7.277026
v -1.656176 0.387612 -7.791629
v -1.656176 -0.419221 -7.791629
vt 0.252756 0.307854
vt 0.252755 0.307854
vt 0.252756 0.307854
vt 0.252755 0.307854
vt 0.252756 0.307854
vt 0.252755 0.307854
vt 0.252756 0.307854
vt 0.252755 0.307854
vt 0.252756 0.307854
vt 0.252755 0.307854
vt 0.252756 0.307854
vt 0.252755 0.307854
vt 0.252756 0.307854
vt 0.252755 0.307854
vt 0.252756 0.307854
vt 0.252755 0.307854
vt 0.252756 0.307854
vt 0.252755 0.307854
vt 0.252756 0.307854
vt 0.252755 0.307854
vt 0.252756 0.307854
vt 0.252756 0.307854
vt 0.252755 0.307854
vt 0.252755 0.307854
vt 0.252756 0.307854
vt 0.252755 0.307854
vt 0.252756 0.307854
vt 0.252755 0.307854
vt 0.252756 0.307854
vt 0.252755 0.307854
vt 0.252756 0.307854
vt 0.252755 0.307854
vt 0.252756 0.307854
vt 0.252755 0.307854
vt 0.252756 0.307854
vt 0.252755 0.307854
vt 0.252756 0.307854
vt 0.252755 0.307854
vt 0.252756 0.307854
vt 0.252755 0.307854
vt 0.252756 0.307854
vt 0.252755 0.307854
vt 0.252756 0.307854
vt 0.252755 0.307854
vt 0.252756 0.307854
vt 0.252755 0.307854
vt 0.252756 0.307854
vt 0.252755 0.307854
vt 0.252756 0.307854
vt 0.252755 0.307854
vt 0.252756 0.307854
vt 0.252755 0.307854
vt 0.252756 0.307854
vt 0.252755 0.307854
vt 0.252756 0.307854
vt 0.252755 0.307854
vt 0.252756 0.307854
vt 0.252755 0.307854
vt 0.252756 0.307854
vt 0.252755 0.307854
vt 0.252756 0.307854
vt 0.252755 0.307854
vt 0.252756 0.307854
vt 0.252755 0.307854
vt 0.252756 0.307854
vt 0.252755 0.307854
vt 0.252756 0.307854
vt 0.252755 0.307854
vt 0.252756 0.307854
vt 0.252755 0.307854
vt 0.252756 0.307854
vt 0.252755 0.307854
vt 0.252756 0.307854
vt 0.252755 0.307854
vt 0.252755 0.307854
vt 0.252756 0.307854
vt 0.252756 0.307854
vt 0.252755 0.307854
vt 0.252756 0.307854
vt 0.252755 0.307854
vt 0.252756 0.307854
vt 0.252755 0.307854
vt 0.252756 0.307854
vt 0.252755 0.307854
vt 0.252756 0.307854
vt 0.252755 0.307854
vt 0.252756 0.307854
vt 0.252755 0.307854
vt 0.252756 0.307854
vt 0.252755 0.307854
vt 0.252756 0.307854
vt 0.252755 0.307854
vt 0.252756 0.307854
vt 0.252755 0.307854
vt 0.252756 0.307854
vt 0.252755 0.307854
vt 0.252756 0.307854
vt 0.252755 0.307854
vt 0.252756 0.307854
vt 0.252755 0.307854
vt 0.252756 0.307854
vt 0.252755 0.307854
vt 0.252756 0.307854
vt 0.252755 0.307854
vn 0.1045 0.0000 0.9945
vn 0.3090 0.0000 0.9511
vn 0.5000 0.0000 0.8660
vn 0.6691 0.0000 0.7431
vn 0.8090 0.0000 0.5878
vn 0.9135 0.0000 0.4067
vn 0.9781 0.0000 0.2079
vn 1.0000 0.0000 -0.0000
vn 0.9781 0.0000 -0.2079
vn 0.1045 0.0000 -0.9945
vn -0.1045 0.0000 -0.9945
vn -0.3090 0.0000 -0.9511
vn -0.5000 0.0000 -0.8660
vn -0.6691 0.0000 -0.7431
vn -0.8090 0.0000 -0.5878
vn -0.9135 0.0000 -0.4067
vn -0.9781 0.0000 -0.2079
vn -1.0000 0.0000 0.0000
vn -0.9781 0.0000 0.2079
vn -0.9135 0.0000 0.4067
vn -0.8090 0.0000 0.5878
vn -0.6691 0.0000 0.7431
vn -0.5000 0.0000 0.8660
vn -0.3090 0.0000 0.9511
vn -0.1045 0.0000 0.9945
vn 0.9135 0.0000 -0.4067
vn 0.8090 0.0000 -0.5878
vn 0.6691 0.0000 -0.7431
vn 0.5000 0.0000 -0.8660
vn 0.3090 0.0000 -0.9511
vn -0.0025 -1.0000 0.0011
vn -0.0022 -1.0000 0.0016
vn -0.0018 -1.0000 0.0020
vn 0.0003 -1.0000 0.0027
vn -0.0014 -1.0000 0.0024
vn 0.0003 -1.0000 -0.0027
vn 0.0008 -1.0000 0.0026
vn -0.0008 -1.0000 0.0026
vn -0.0003 -1.0000 -0.0027
vn 0.0014 -1.0000 0.0024
vn -0.0003 -1.0000 0.0027
vn -0.0008 -1.0000 -0.0026
vn 0.0018 -1.0000 0.0020
vn -0.0014 -1.0000 -0.0024
vn 0.0022 -1.0000 0.0016
vn -0.0018 -1.0000 -0.0020
vn 0.0025 -1.0000 0.0011
vn -0.0022 -1.0000 -0.0016
vn 0.0027 -1.0000 0.0006
vn -0.0025 -1.0000 -0.0011
vn 0.0027 -1.0000 0.0000
vn -0.0027 -1.0000 -0.0006
vn 0.0027 -1.0000 -0.0006
vn -0.0027 -1.0000 0.0000
vn -0.0027 -1.0000 0.0006
vn 0.0005 1.0000 0.0046
vn 0.0014 1.0000 0.0044
vn 0.0023 1.0000 0.0040
vn 0.0031 1.0000 0.0034
vn 0.0037 1.0000 0.0027
vn 0.0042 1.0000 0.0019
vn 0.0045 1.0000 0.0010
vn 0.0046 1.0000 0.0000
vn 0.0045 1.0000 -0.0010
vn 0.0042 1.0000 -0.0019
vn 0.0037 1.0000 -0.0027
vn 0.0031 1.0000 -0.0034
vn 0.0023 1.0000 -0.0040
vn 0.0014 1.0000 -0.0044
vn 0.0005 1.0000 -0.0046
vn -0.0005 1.0000 -0.0046
vn -0.0014 1.0000 -0.0044
vn -0.0023 1.0000 -0.0040
vn -0.0031 1.0000 -0.0034
vn -0.0037 1.0000 -0.0027
vn -0.0042 1.0000 -0.0019
vn -0.0045 1.0000 -0.0010
vn -0.0046 1.0000 0.0000
vn -0.0045 1.0000 0.0010
vn -0.0005 1.0000 0.0046
usemtl Material
s off
f 52/1/1 1/2/1 2/3/1 51/4/1
f 50/5/2 52/1/2 51/4/2 49/6/2
f 48/7/3 50/5/3 49/6/3 47/8/3
f 46/9/4 48/7/4 47/8/4 45/10/4
f 44/11/5 46/9/5 45/10/5 43/12/5
f 42/13/6 44/11/6 43/12/6 41/14/6
f 40/15/7 42/13/7 41/14/7 39/16/7
f 38/17/8 40/15/8 39/16/8 37/18/8
f 36/19/9 38/17/9 37/18/9 35/20/9
f 32/21/10 34/22/10 33/23/10 31/24/10
f 30/25/11 32/21/11 31/24/11 29/26/11
f 28/27/12 30/25/12 29/26/12 27/28/12
f 26/29/13 28/27/13 27/28/13 25/30/13
f 24/31/14 26/29/14 25/30/14 23/32/14
f 22/33/15 24/31/15 23/32/15 21/34/15
f 20/35/16 22/33/16 21/34/16 19/36/16
f 18/37/17 20/35/17 19/36/17 17/38/17
f 16/39/18 18/37/18 17/38/18 15/40/18
f 14/41/19 16/39/19 15/40/19 13/42/19
f 12/43/20 14/41/20 13/42/20 11/44/20
f 10/45/21 12/43/21 11/44/21 9/46/21
f 8/47/22 10/45/22 9/46/22 7/48/22
f 6/49/23 8/47/23 7/48/23 5/50/23
f 4/51/24 6/49/24 5/50/24 3/52/24
f 1/2/25 4/51/25 3/52/25 2/3/25
f 104/53/11 103/54/11 54/55/11 53/56/11
f 102/57/12 101/58/12 103/54/12 104/53/12
f 100/59/13 99/60/13 101/58/13 102/57/13
f 98/61/14 97/62/14 99/60/14 100/59/14
f 96/63/15 95/64/15 97/62/15 98/61/15
f 94/65/16 93/66/16 95/64/16 96/63/16
f 92/67/17 91/68/17 93/66/17 94/65/17
f 90/69/18 89/70/18 91/68/18 92/67/18
f 88/71/19 87/72/19 89/70/19 90/69/19
f 84/73/25 83/74/25 85/75/25 86/76/25
f 82/77/1 81/78/1 83/74/1 84/73/1
f 80/79/2 79/80/2 81/78/2 82/77/2
f 78/81/3 77/82/3 79/80/3 80/79/3
f 76/83/4 75/84/4 77/82/4 78/81/4
f 74/85/5 73/86/5 75/84/5 76/83/5
f 72/87/6 71/88/6 73/86/6 74/85/6
f 70/89/7 69/90/7 71/88/7 72/87/7
f 68/91/8 67/92/8 69/90/8 70/89/8
f 66/93/9 65/94/9 67/92/9 68/91/9
f 64/95/26 63/96/26 65/94/26 66/93/26
f 62/97/27 61/98/27 63/96/27 64/95/27
f 60/99/28 59/100/28 61/98/28 62/97/28
f 58/101/29 57/102/29 59/100/29 60/99/29
f 56/103/30 55/104/30 57/102/30 58/101/30
f 53/56/10 54/55/10 55/104/10 56/103/10
f 14/41/31 12/43/31 64/95/31 66/93/31
f 12/43/32 10/45/32 62/97/32 64/95/32
f 10/45/33 8/47/33 60/99/33 62/97/33
f 1/2/34 52/1/34 104/53/34 53/56/34
f 8/47/35 6/49/35 58/101/35 60/99/35
f 34/22/36 32/21/36 84/73/36 86/76/36
f 52/1/37 50/5/37 102/57/37 104/53/37
f 6/49/38 4/51/38 56/103/38 58/101/38
f 32/21/39 30/25/39 82/77/39 84/73/39
f 50/5/40 48/7/40 100/59/40 102/57/40
f 4/51/41 1/2/41 53/56/41 56/103/41
f 30/25/42 28/27/42 80/79/42 82/77/42
f 48/7/43 46/9/43 98/61/43 100/59/43
f 28/27/44 26/29/44 78/81/44 80/79/44
f 46/9/45 44/11/45 96/63/45 98/61/45
f 26/29/46 24/31/46 76/83/46 78/81/46
f 44/11/47 42/13/47 94/65/47 96/63/47
f 24/31/48 22/33/48 74/85/48 76/83/48
f 42/13/49 40/15/49 92/67/49 94/65/49
f 22/33/50 20/35/50 72/87/50 74/85/50
f 40/15/51 38/17/51 90/69/51 92/67/51
f 20/35/52 18/37/52 70/89/52 72/87/52
f 38/17/53 36/19/53 88/71/53 90/69/53
f 18/37/54 16/39/54 68/91/54 70/89/54
f 16/39/55 14/41/55 66/93/55 68/91/55
f 31/24/56 83/74/56 81/78/56 29/26/56
f 29/26/57 81/78/57 79/80/57 27/28/57
f 27/28/58 79/80/58 77/82/58 25/30/58
f 25/30/59 77/82/59 75/84/59 23/32/59
f 23/32/60 75/84/60 73/86/60 21/34/60
f 21/34/61 73/86/61 71/88/61 19/36/61
f 19/36/62 71/88/62 69/90/62 17/38/62
f 17/38/63 69/90/63 67/92/63 15/40/63
f 15/40/64 67/92/64 65/94/64 13/42/64
f 13/42/65 65/94/65 63/96/65 11/44/65
f 11/44/66 63/96/66 61/98/66 9/46/66
f 9/46/67 61/98/67 59/100/67 7/48/67
f 7/48/68 59/100/68 57/102/68 5/50/68
f 5/50/69 57/102/69 55/104/69 3/52/69
f 3/52/70 55/104/70 54/55/70 2/3/70
f 2/3/71 54/55/71 103/54/71 51/4/71
f 51/4/72 103/54/72 101/58/72 49/6/72
f 49/6/73 101/58/73 99/60/73 47/8/73
f 47/8/74 99/60/74 97/62/74 45/10/74
f 45/10/75 97/62/75 95/64/75 43/12/75
f 43/12/76 95/64/76 93/66/76 41/14/76
f 41/14/77 93/66/77 91/68/77 39/16/77
f 39/16/78 91/68/78 89/70/78 37/18/78
f 37/18/79 89/70/79 87/72/79 35/20/79
f 34/22/17 86/76/17 85/75/17 33/23/17
f 36/19/2 35/20/2 87/72/2 88/71/2
f 33/23/80 85/75/80 83/74/80 31/24/80
