# Blender v2.90.1 OBJ File: 'Ludum_Dare48.blend'
# www.blender.org
mtllib Rocks_Small_Collider.mtl
o Rocks_Small_Collider_Cube.013
v -6.152575 0.304633 0.555607
v -6.152575 1.635240 0.555607
v -6.152575 0.304633 -0.068067
v -6.152575 1.635240 -0.068067
v -5.553278 0.304633 0.555607
v -5.553278 1.635240 0.555607
v -5.553278 0.304633 -0.068067
v -5.553278 1.635240 -0.068067
v -6.152575 1.347763 0.555607
v -6.152575 1.347763 -0.068067
v -5.553278 1.347763 -0.068067
v -5.553278 1.347763 0.555607
v -2.961191 0.304633 0.555607
v -2.961191 0.304633 -0.068067
v -2.961191 1.347763 -0.068067
v -2.961191 1.347763 0.555607
v -7.883342 0.304633 0.555607
v -7.883342 0.304633 -0.068067
v -7.883342 1.347763 0.555607
v -7.883342 1.347763 -0.068067
v -7.017959 0.304633 0.555607
v -7.017959 0.304633 -0.068067
v -7.017959 1.347763 -0.068067
v -7.017959 1.347763 0.555607
v -4.257235 1.347763 -0.068067
v -4.257235 0.304633 -0.068067
v -4.257235 1.347763 0.555607
v -4.257235 0.304633 0.555607
v -6.152575 0.304633 -0.422682
v -6.152575 1.635240 -0.422682
v -5.553278 0.304633 -0.422682
v -6.152575 1.347763 -0.422682
v -5.553278 1.347763 -0.422682
v -7.017959 0.304633 -0.422682
v -7.017959 1.347763 -0.422682
v -4.257235 1.347763 -0.422682
v -4.257235 0.304633 -0.422682
v -6.152575 0.304633 0.747916
v -5.553278 0.304633 0.747916
v -6.152575 1.347763 0.747916
v -5.553278 1.347763 0.747916
v -7.017959 0.304633 0.747916
v -7.017959 1.347763 0.747916
v -4.257235 1.347763 0.654362
v -4.257235 0.304633 0.654362
vt 0.570988 0.000000
vt 0.625000 0.000000
vt 0.625000 0.250000
vt 0.570988 0.250000
vt 0.625000 0.500000
vt 0.570988 0.500000
vt 0.625000 0.750000
vt 0.570988 0.750000
vt 0.625000 1.000000
vt 0.570988 1.000000
vt 0.125000 0.500000
vt 0.375000 0.500000
vt 0.375000 0.750000
vt 0.125000 0.750000
vt 0.875000 0.500000
vt 0.875000 0.750000
vt 0.375000 0.750000
vt 0.570988 0.750000
vt 0.570988 0.750000
vt 0.375000 0.750000
vt 0.375000 0.500000
vt 0.570988 0.500000
vt 0.570988 0.500000
vt 0.375000 0.500000
vt 0.125000 0.500000
vt 0.375000 0.500000
vt 0.125000 0.500000
vt 0.125000 0.750000
vt 0.125000 0.750000
vt 0.125000 0.500000
vt 0.570988 0.750000
vt 0.375000 0.750000
vt 0.375000 0.000000
vt 0.570988 0.000000
vt 0.570988 0.250000
vt 0.375000 0.250000
vt 0.570988 0.250000
vt 0.375000 0.250000
vt 0.375000 1.000000
vt 0.570988 1.000000
vt 0.570988 1.000000
vt 0.375000 1.000000
vt 0.570988 0.000000
vt 0.570988 0.750000
vt 0.375000 0.500000
vt 0.570988 0.500000
vt 0.570988 0.000000
vt 0.570988 0.000000
vt 0.570988 0.250000
vt 0.570988 0.250000
vt 0.375000 0.250000
vt 0.570988 0.500000
vt 0.375000 0.250000
vt 0.125000 0.500000
vt 0.625000 0.250000
vt 0.375000 0.750000
vt 0.570988 1.000000
vt 0.375000 1.000000
vt 0.570988 1.000000
vt 0.375000 1.000000
vt 0.125000 0.750000
vt 0.125000 0.750000
vn -1.0000 0.0000 0.0000
vn 0.0000 0.0000 -1.0000
vn 1.0000 0.0000 0.0000
vn 0.0000 0.0000 1.0000
vn 0.0000 -1.0000 0.0000
vn 0.0000 1.0000 0.0000
vn 0.0720 0.0000 0.9974
usemtl None
s off
f 9/1/1 2/2/1 4/3/1 10/4/1
f 10/4/2 4/3/2 8/5/2 11/6/2
f 11/6/3 8/5/3 6/7/3 12/8/3
f 12/8/4 6/7/4 2/9/4 9/10/4
f 3/11/5 7/12/5 5/13/5 1/14/5
f 8/5/6 4/15/6 2/16/6 6/7/6
f 28/17/3 27/18/3 44/19/3 45/20/3
f 26/21/2 25/22/2 15/23/2 14/24/2
f 7/12/5 3/11/5 29/25/5 31/26/5
f 22/27/5 21/28/5 17/29/5 18/30/5
f 14/24/3 15/23/3 16/31/3 13/32/3
f 25/22/6 27/18/6 16/31/6 15/23/6
f 27/18/4 28/17/4 13/32/4 16/31/4
f 28/17/5 26/21/5 14/24/5 13/32/5
f 17/33/1 19/34/1 20/35/1 18/36/1
f 23/37/2 22/38/2 18/36/2 20/35/2
f 21/39/4 24/40/4 19/41/4 17/42/4
f 24/43/6 23/37/6 20/35/6 19/34/6
f 9/1/6 10/4/6 23/37/6 24/43/6
f 27/18/6 12/8/6 41/44/6 44/19/6
f 25/22/3 26/21/3 37/45/3 36/46/3
f 3/11/5 1/14/5 21/28/5 22/27/5
f 5/13/5 7/12/5 26/21/5 28/17/5
f 9/1/6 24/43/6 43/47/6 40/48/6
f 11/6/6 12/8/6 27/18/6 25/22/6
f 23/37/6 10/4/6 32/49/6 35/50/6
f 29/51/2 32/49/2 33/52/2 31/26/2
f 32/49/2 29/51/2 34/53/2 35/50/2
f 31/26/2 33/52/2 36/46/2 37/45/2
f 10/4/6 11/6/6 33/52/6 32/49/6
f 26/21/5 7/12/5 31/26/5 37/45/5
f 22/38/1 23/37/1 35/50/1 34/53/1
f 3/11/5 22/27/5 34/54/5 29/25/5
f 4/3/3 10/4/3 32/49/3 30/55/3
f 11/6/6 25/22/6 36/46/6 33/52/6
f 39/56/4 41/44/4 40/57/4 38/58/4
f 38/58/4 40/57/4 43/59/4 42/60/4
f 41/44/7 39/56/7 45/20/7 44/19/7
f 12/8/6 9/10/6 40/57/6 41/44/6
f 5/13/5 28/17/5 45/20/5 39/56/5
f 21/28/5 1/14/5 38/61/5 42/62/5
f 1/14/5 5/13/5 39/56/5 38/61/5
f 24/40/1 21/39/1 42/60/1 43/59/1
