# Blender v2.90.1 OBJ File: 'Ludum_Dare48.blend'
# www.blender.org
mtllib Diamond.mtl
o Diamond_Cylinder.032
v -5.606790 2.717735 -0.624428
v -6.147560 2.717735 -0.312214
v -6.147560 2.717735 0.312214
v -5.606790 1.326260 -0.000000
v -5.606790 2.717735 0.624428
v -5.066020 2.717735 0.312214
v -5.066020 2.717735 -0.312214
v -5.606790 2.508469 -1.000000
v -6.472816 2.508469 -0.500000
v -6.472816 2.508469 0.500000
v -5.606790 2.508469 1.000000
v -4.740765 2.508469 0.500000
v -4.740765 2.508469 -0.500000
v -5.606790 2.364801 -1.001692
v -6.474281 2.364801 -0.500846
v -6.474281 2.364801 0.500846
v -5.606790 2.364801 1.001692
v -4.739299 2.364801 0.500846
v -4.739299 2.364801 -0.500846
vt 0.318886 0.934519
vt 0.318886 0.934519
vt 0.318886 0.934519
vt 0.318886 0.934519
vt 0.318886 0.934519
vt 0.318886 0.934519
vt 0.318886 0.934519
vt 0.318886 0.934519
vt 0.318886 0.934519
vt 0.318886 0.934519
vt 0.318886 0.934519
vt 0.318886 0.934519
vt 0.318886 0.934519
vt 0.318886 0.934519
vt 0.318886 0.934519
vt 0.318886 0.934519
vt 0.318886 0.934519
vt 0.318886 0.934519
vt 0.318886 0.934519
vn -0.3837 -0.6411 -0.6647
vn -0.7675 -0.6411 0.0000
vn -0.3837 -0.6411 0.6647
vn 0.3837 -0.6411 0.6647
vn 0.7675 -0.6411 0.0000
vn 0.0000 1.0000 0.0000
vn -0.2705 0.8410 -0.4686
vn -0.5411 0.8410 0.0000
vn -0.2705 0.8410 0.4686
vn 0.2705 0.8410 0.4686
vn 0.5411 0.8410 0.0000
vn 0.2705 0.8410 -0.4686
vn 0.5000 0.0102 -0.8660
vn 0.9999 0.0102 0.0000
vn 0.5000 0.0102 0.8660
vn -0.5000 0.0102 0.8660
vn -0.9999 0.0102 0.0000
vn -0.5000 0.0102 -0.8660
vn 0.3837 -0.6411 -0.6647
usemtl Material
s off
f 14/1/1 4/2/1 15/3/1
f 15/3/2 4/2/2 16/4/2
f 16/4/3 4/2/3 17/5/3
f 17/5/4 4/2/4 18/6/4
f 18/6/5 4/2/5 19/7/5
f 1/8/6 2/9/6 3/10/6 5/11/6 6/12/6 7/13/6
f 2/9/7 1/8/7 8/14/7 9/15/7
f 3/10/8 2/9/8 9/15/8 10/16/8
f 5/11/9 3/10/9 10/16/9 11/17/9
f 6/12/10 5/11/10 11/17/10 12/18/10
f 7/13/11 6/12/11 12/18/11 13/19/11
f 1/8/12 7/13/12 13/19/12 8/14/12
f 13/19/13 19/7/13 14/1/13 8/14/13
f 12/18/14 18/6/14 19/7/14 13/19/14
f 11/17/15 17/5/15 18/6/15 12/18/15
f 10/16/16 16/4/16 17/5/16 11/17/16
f 9/15/17 15/3/17 16/4/17 10/16/17
f 8/14/18 14/1/18 15/3/18 9/15/18
f 19/7/19 4/2/19 14/1/19
