# Blender v2.90.1 OBJ File: 'Ludum_Dare48.blend'
# www.blender.org
mtllib Ruby.mtl
o Ruby_Cylinder.031
v -6.000590 1.754943 -0.535232
v -5.452421 1.730788 -0.571474
v -6.000590 1.531766 0.000000
v -5.452421 1.492499 0.000000
v -6.000590 1.754943 0.535233
v -5.452421 1.730788 0.571475
v -6.000590 2.036224 0.535233
v -5.452421 2.060379 0.571475
v -6.000590 2.259401 0.000000
v -5.452421 2.298667 0.000000
v -6.000590 2.036225 -0.535232
v -5.452421 2.060379 -0.571474
v -5.834635 1.534476 -0.866025
v -5.834635 1.173368 0.000000
v -5.834635 1.534476 0.866026
v -5.834635 2.256691 0.866026
v -5.834635 2.617799 0.000000
v -5.834635 2.256691 -0.866025
v -5.620227 1.173368 0.000000
v -5.620227 1.534476 -0.866025
v -5.620226 1.534476 0.866026
v -5.620226 2.256691 0.866026
v -5.620226 2.617799 0.000000
v -5.620226 2.256691 -0.866025
vt 0.673239 0.505000
vt 0.673239 0.505000
vt 0.673239 0.505000
vt 0.673239 0.505000
vt 0.673239 0.505000
vt 0.673239 0.505000
vt 0.673239 0.505000
vt 0.673239 0.505000
vt 0.673239 0.505000
vt 0.673239 0.505000
vt 0.673239 0.505000
vt 0.673239 0.505000
vt 0.673239 0.505000
vt 0.673239 0.505000
vt 0.673239 0.505000
vt 0.673239 0.505000
vt 0.673239 0.505000
vt 0.673239 0.505000
vt 0.673239 0.505000
vt 0.673239 0.505000
vt 0.673239 0.505000
vt 0.673239 0.505000
vt 0.673239 0.505000
vt 0.673239 0.505000
vn -0.0000 -0.9230 -0.3849
vn -0.0000 -0.9230 0.3849
vn 0.0000 -0.0000 1.0000
vn 0.0000 0.9230 0.3849
vn 1.0000 -0.0000 -0.0000
vn 0.0000 0.9230 -0.3849
vn -0.0000 0.0000 -1.0000
vn -1.0000 0.0000 0.0000
vn -0.8938 -0.4139 -0.1726
vn -0.8938 -0.4139 0.1726
vn -0.8938 -0.0000 0.4484
vn -0.8938 0.4139 0.1726
vn -0.8938 0.4139 -0.1726
vn -0.8938 0.0000 -0.4484
vn 0.8689 -0.4569 -0.1905
vn 0.8689 -0.4569 0.1905
vn 0.8689 -0.0000 0.4950
vn 0.8689 0.4569 0.1905
vn 0.8689 0.4569 -0.1905
vn 0.8689 0.0000 -0.4950
usemtl Material
s off
f 13/1/1 20/2/1 19/3/1 14/4/1
f 14/4/2 19/3/2 21/5/2 15/6/2
f 15/6/3 21/5/3 22/7/3 16/8/3
f 16/8/4 22/7/4 23/9/4 17/10/4
f 4/11/5 2/12/5 12/13/5 10/14/5 8/15/5 6/16/5
f 17/10/6 23/9/6 24/17/6 18/18/6
f 18/18/7 24/17/7 20/2/7 13/1/7
f 1/19/8 3/20/8 5/21/8 7/22/8 9/23/8 11/24/8
f 3/20/9 1/19/9 13/1/9 14/4/9
f 5/21/10 3/20/10 14/4/10 15/6/10
f 7/22/11 5/21/11 15/6/11 16/8/11
f 9/23/12 7/22/12 16/8/12 17/10/12
f 11/24/13 9/23/13 17/10/13 18/18/13
f 1/19/14 11/24/14 18/18/14 13/1/14
f 2/12/15 4/11/15 19/3/15 20/2/15
f 4/11/16 6/16/16 21/5/16 19/3/16
f 6/16/17 8/15/17 22/7/17 21/5/17
f 8/15/18 10/14/18 23/9/18 22/7/18
f 10/14/19 12/13/19 24/17/19 23/9/19
f 12/13/20 2/12/20 20/2/20 24/17/20
