# Blender v2.90.1 OBJ File: 'Ludum_Dare48.blend'
# www.blender.org
mtllib Sapphire.mtl
o Sapphire_Cube.085
v -6.124772 1.326591 -0.042480
v -6.126626 1.326506 -0.002309
v -6.156592 1.570748 0.242563
v -6.159647 1.610846 0.242507
v -6.135165 1.611974 -0.288088
v -6.132109 1.571877 -0.288032
v -6.166985 1.856131 -0.003045
v -6.165131 1.856217 -0.043216
v -5.548449 1.284199 0.057922
v -5.545246 1.284347 -0.011471
v -5.590306 1.651610 0.356739
v -5.585028 1.582344 0.356836
v -5.554202 1.583764 -0.311214
v -5.559481 1.653030 -0.311311
v -5.596060 1.951175 -0.012398
v -5.599262 1.951028 0.056995
v -5.974488 1.506626 -0.617461
v -5.990061 1.710981 -0.617745
v -6.050244 2.201509 -0.125952
v -6.059691 2.201074 0.078777
v -5.969200 1.013567 0.080428
v -5.959753 1.014003 -0.124302
v -6.044956 1.708451 0.571937
v -6.029383 1.504096 0.572221
v -6.023870 1.528600 -0.502833
v -6.035295 1.678534 -0.503042
v -6.084797 2.082003 -0.098533
v -6.091729 2.081684 0.051675
v -6.018681 1.123089 0.053008
v -6.011749 1.123409 -0.097200
v -6.079608 1.676492 0.457309
v -6.068183 1.526559 0.457517
v -5.721191 1.701098 -0.572221
v -5.705618 1.496743 -0.571936
v -5.790822 2.191191 0.124302
v -5.781374 2.191627 -0.080428
v -5.690884 1.004120 -0.078777
v -5.700331 1.003685 0.125952
v -5.760514 1.494213 0.617745
v -5.776086 1.698568 0.617461
v -5.633503 1.677464 -0.420227
v -5.623150 1.541613 -0.420038
v -5.685592 2.050537 0.090198
v -5.679312 2.050827 -0.045902
v -5.611935 1.166657 -0.044673
v -5.618215 1.166367 0.091427
v -5.664024 1.539730 0.465751
v -5.674376 1.675581 0.465563
vt 0.263765 0.754132
vt 0.263765 0.754132
vt 0.263765 0.754132
vt 0.263765 0.754132
vt 0.263765 0.754132
vt 0.263765 0.754132
vt 0.263765 0.754132
vt 0.263765 0.754132
vt 0.263765 0.754132
vt 0.263765 0.754132
vt 0.263765 0.754132
vt 0.263765 0.754132
vt 0.263765 0.754132
vt 0.263765 0.754132
vt 0.263765 0.754132
vt 0.263765 0.754132
vt 0.263765 0.754132
vt 0.263765 0.754132
vt 0.263765 0.754132
vt 0.263765 0.754132
vt 0.263765 0.754132
vt 0.263765 0.754132
vt 0.263765 0.754132
vt 0.263765 0.754132
vt 0.263765 0.754132
vt 0.263765 0.754132
vt 0.263765 0.754132
vt 0.263765 0.754132
vt 0.263765 0.754132
vt 0.263765 0.754132
vt 0.263765 0.754132
vt 0.263765 0.754132
vt 0.263765 0.754132
vt 0.263765 0.754132
vt 0.263765 0.754132
vt 0.263765 0.754132
vt 0.263765 0.754132
vt 0.263765 0.754132
vt 0.263765 0.754132
vt 0.263765 0.754132
vt 0.263765 0.754132
vt 0.263765 0.754132
vt 0.263765 0.754132
vt 0.263765 0.754132
vt 0.263765 0.754132
vt 0.263765 0.754132
vt 0.263765 0.754132
vt 0.263765 0.754132
vn -0.1429 -0.7094 0.6901
vn 0.9960 0.0760 0.0461
vn -0.0935 0.7030 0.7050
vn -0.9960 -0.0760 -0.0461
vn 0.1429 0.7094 -0.6901
vn 0.1673 0.0114 -0.9858
vn 0.0361 0.9993 0.0038
vn -0.0361 -0.9993 -0.0038
vn -0.1673 -0.0114 0.9858
vn 0.0935 -0.7030 -0.7050
vn -0.9210 -0.0707 -0.3832
vn -0.9624 0.2682 -0.0438
vn -0.9064 -0.4202 -0.0427
vn -0.9490 -0.0719 0.3069
vn -0.8850 -0.3424 -0.3156
vn -0.9061 -0.3498 0.2380
vn -0.9515 0.2029 0.2311
vn -0.9297 0.1975 -0.3108
vn -0.9070 0.2375 -0.3479
vn -0.9307 0.2445 0.2721
vn -0.8773 -0.3892 0.2808
vn -0.8545 -0.3800 -0.3541
vn -0.9275 -0.0702 0.3671
vn -0.8779 -0.4771 -0.0415
vn -0.9445 0.3256 -0.0429
vn -0.8964 -0.0689 -0.4378
vn 0.8687 0.0655 -0.4910
vn 0.8046 0.5926 0.0384
vn 0.8954 -0.4434 0.0404
vn 0.8337 0.0643 0.5485
vn 0.8644 -0.3426 -0.3681
vn 0.8383 -0.3313 0.4330
vn 0.7662 0.4659 0.4425
vn 0.7904 0.4794 -0.3814
vn 0.7638 0.5014 -0.4066
vn 0.7398 0.4869 0.4643
vn 0.8173 -0.3548 0.4540
vn 0.8434 -0.3673 -0.3921
vn 0.7964 0.0615 0.6017
vn 0.8646 -0.5009 0.0388
vn 0.7608 0.6479 0.0365
vn 0.8319 0.0626 -0.5513
usemtl Material
s off
f 38/1/1 39/2/1 24/3/1 21/4/1
f 13/5/2 14/6/2 15/7/2 16/8/2 11/9/2 12/10/2 9/11/2 10/12/2
f 35/13/3 20/14/3 23/15/3 40/16/3
f 1/17/4 2/18/4 3/19/4 4/20/4 7/21/4 8/22/4 5/23/4 6/24/4
f 18/25/5 19/26/5 36/27/5 33/28/5
f 34/29/6 17/30/6 18/25/6 33/28/6
f 20/14/7 35/13/7 36/27/7 19/26/7
f 22/31/8 37/32/8 38/1/8 21/4/8
f 40/16/9 23/15/9 24/3/9 39/2/9
f 17/30/10 34/29/10 37/32/10 22/31/10
f 25/33/11 26/34/11 18/25/11 17/30/11
f 27/35/12 28/36/12 20/14/12 19/26/12
f 29/37/13 30/38/13 22/31/13 21/4/13
f 31/39/14 32/40/14 24/3/14 23/15/14
f 30/38/15 25/33/15 17/30/15 22/31/15
f 32/40/16 29/37/16 21/4/16 24/3/16
f 28/36/17 31/39/17 23/15/17 20/14/17
f 26/34/18 27/35/18 19/26/18 18/25/18
f 5/23/19 8/22/19 27/35/19 26/34/19
f 7/21/20 4/20/20 31/39/20 28/36/20
f 3/19/21 2/18/21 29/37/21 32/40/21
f 1/17/22 6/24/22 25/33/22 30/38/22
f 4/20/23 3/19/23 32/40/23 31/39/23
f 2/18/24 1/17/24 30/38/24 29/37/24
f 8/22/25 7/21/25 28/36/25 27/35/25
f 6/24/26 5/23/26 26/34/26 25/33/26
f 41/41/27 42/42/27 34/29/27 33/28/27
f 43/43/28 44/44/28 36/27/28 35/13/28
f 45/45/29 46/46/29 38/1/29 37/32/29
f 47/47/30 48/48/30 40/16/30 39/2/30
f 42/42/31 45/45/31 37/32/31 34/29/31
f 46/46/32 47/47/32 39/2/32 38/1/32
f 48/48/33 43/43/33 35/13/33 40/16/33
f 44/44/34 41/41/34 33/28/34 36/27/34
f 15/7/35 14/6/35 41/41/35 44/44/35
f 11/9/36 16/8/36 43/43/36 48/48/36
f 9/11/37 12/10/37 47/47/37 46/46/37
f 13/5/38 10/12/38 45/45/38 42/42/38
f 12/10/39 11/9/39 48/48/39 47/47/39
f 10/12/40 9/11/40 46/46/40 45/45/40
f 16/8/41 15/7/41 44/44/41 43/43/41
f 14/6/42 13/5/42 42/42/42 41/41/42
