# Blender v2.90.1 OBJ File: 'Ludum_Dare48.blend'
# www.blender.org
mtllib Topaz.mtl
o Topaz_Icosphere
v -5.610193 0.860682 0.301447
v -5.442964 1.337202 0.589436
v -5.674690 1.337201 0.767214
v -5.817906 1.337206 0.301793
v -5.671694 1.371307 -0.145476
v -5.442964 1.337202 0.014149
v -5.548692 2.197536 0.748369
v -5.778323 2.231641 0.589436
v -5.778323 2.231641 0.014149
v -5.546597 2.231641 -0.163629
v -5.403381 2.231637 0.301793
v -5.610193 2.708160 0.301447
v -5.648289 0.933767 0.575359
v -5.515551 0.998639 0.463798
v -5.551700 1.298777 0.726493
v -5.413525 1.258685 0.301793
v -5.512085 0.933767 0.132721
v -5.732470 0.933770 0.301793
v -5.770116 1.258685 0.575360
v -5.646342 0.998639 0.038754
v -5.770116 1.258685 0.028226
v -5.549730 1.258684 -0.140847
v -5.390258 1.784421 0.470865
v -5.390258 1.784421 0.132721
v -5.610193 1.784421 0.826837
v -5.474438 1.784421 0.744436
v -5.831029 1.784421 0.470865
v -5.746850 1.784421 0.744436
v -5.746850 1.784421 -0.140850
v -5.831029 1.784421 0.132721
v -5.474438 1.784421 -0.140850
v -5.610193 1.784421 -0.223943
v -5.451171 2.310157 0.575360
v -5.671558 2.310159 0.744433
v -5.807762 2.310157 0.301793
v -5.668685 2.270065 -0.123600
v -5.451171 2.310157 0.028226
v -5.574043 2.570204 0.564139
v -5.488818 2.635073 0.301793
v -5.709203 2.635075 0.470864
v -5.709203 2.635075 0.132721
v -5.574043 2.570204 0.038754
v -5.851202 1.509357 0.301793
v -5.822735 2.152607 0.508657
v -5.822735 2.152607 0.094928
v -5.860640 1.830981 0.423384
v -5.860640 1.830981 0.180201
v -5.843906 2.209074 0.301793
vt 0.137773 0.390102
vt 0.137773 0.390102
vt 0.137773 0.390102
vt 0.137773 0.390102
vt 0.137773 0.390102
vt 0.137773 0.390102
vt 0.137773 0.390102
vt 0.137773 0.390102
vt 0.137773 0.390102
vt 0.137773 0.390102
vt 0.137773 0.390102
vt 0.137773 0.390102
vt 0.137773 0.390102
vt 0.137773 0.390102
vt 0.137773 0.390102
vt 0.137773 0.390102
vt 0.137773 0.390102
vt 0.137773 0.390102
vt 0.137773 0.390102
vt 0.137773 0.390102
vt 0.137773 0.390102
vt 0.137773 0.390102
vt 0.137773 0.390102
vt 0.137773 0.390102
vt 0.137773 0.390102
vt 0.137773 0.390102
vt 0.137773 0.390102
vt 0.137773 0.390102
vt 0.137773 0.390102
vt 0.137773 0.390102
vt 0.137773 0.390102
vt 0.137773 0.390102
vt 0.137773 0.390102
vt 0.137773 0.390102
vt 0.137773 0.390102
vt 0.137773 0.390102
vt 0.137773 0.390102
vt 0.137773 0.390102
vt 0.137773 0.390102
vt 0.137773 0.390102
vt 0.137773 0.390102
vt 0.137773 0.390102
vt 0.137773 0.390102
vt 0.137773 0.390102
vt 0.137773 0.390102
vt 0.137773 0.390102
vt 0.137773 0.390102
vt 0.137773 0.390102
vn 0.6025 -0.7463 0.2829
vn 0.9488 -0.2664 0.1698
vn -0.5065 -0.8481 0.1558
vn -0.4804 -0.8020 -0.3551
vn -0.1134 -0.8860 -0.4497
vn 0.9887 -0.0836 0.1240
vn 0.2633 -0.1647 0.9506
vn -0.9854 -0.0848 0.1478
vn -0.8186 -0.1427 -0.5564
vn 0.8451 -0.1210 -0.5208
vn 0.9552 -0.0346 0.2939
vn -0.5160 -0.0397 0.8557
vn -0.8621 -0.0325 -0.5058
vn -0.5177 -0.0846 -0.8514
vn 0.9552 -0.0346 -0.2939
vn 0.6959 0.3557 0.6238
vn -0.8511 0.2769 0.4460
vn -0.9648 0.2113 -0.1564
vn -0.1228 0.5019 -0.8562
vn 0.9723 0.2059 -0.1108
vn 0.4832 0.8007 -0.3540
vn 0.8337 0.4090 -0.3710
vn 0.7572 0.3793 -0.5318
vn 0.1125 0.8860 -0.4498
vn -0.3011 0.5254 -0.7958
vn -0.7861 0.2944 -0.5435
vn -0.5939 0.8046 0.0000
vn -0.9569 0.2903 0.0000
vn -0.9648 0.2113 0.1564
vn 0.1151 0.8859 0.4494
vn -0.2294 0.6112 0.7575
vn 0.3695 0.4319 0.8228
vn 0.4816 0.8014 0.3546
vn 0.8330 0.4096 0.3719
vn 0.9723 0.2059 0.1108
vn 0.9854 0.0848 -0.1478
vn 0.9545 0.0522 -0.2937
vn 0.8696 0.1159 -0.4799
vn -0.2599 0.1653 -0.9514
vn -0.5162 0.1132 -0.8490
vn -0.7935 0.1487 -0.5901
vn -0.9254 0.3309 0.1850
vn -0.9032 -0.1747 0.3920
vn -0.9032 -0.1747 -0.3920
vn -0.8451 0.1210 0.5208
vn -0.5150 0.0738 0.8540
vn 0.1223 0.1676 0.9782
vn 0.8199 0.1421 0.5546
vn 0.9545 0.0522 0.2937
vn 0.9854 0.0848 0.1478
vn 0.5216 0.0408 -0.8522
vn 0.5206 -0.0746 -0.8505
vn -0.1182 -0.1683 -0.9786
vn -0.9552 0.0346 -0.2939
vn -0.9545 -0.0522 -0.2937
vn -0.9854 -0.0848 -0.1478
vn -0.9552 0.0346 0.2939
vn -0.9545 -0.0522 0.2937
vn -0.8696 -0.1159 0.4799
vn 0.5170 0.0848 0.8518
vn 0.5155 -0.1134 0.8493
vn 0.7946 -0.1482 0.5888
vn 0.9996 0.0293 0.0000
vn 0.9990 -0.0442 0.0000
vn 0.9887 -0.0836 -0.1240
vn 0.8511 -0.2769 -0.4460
vn 0.2350 -0.6100 -0.7568
vn -0.3677 -0.4321 -0.8234
vn -0.6950 -0.3561 -0.6247
vn -0.8316 -0.4109 -0.3736
vn -0.9723 -0.2059 -0.1108
vn -0.9723 -0.2059 0.1108
vn -0.8997 -0.3374 0.2769
vn -0.7996 -0.2998 0.5204
vn 0.9648 -0.2113 -0.1564
vn 0.9431 -0.3243 0.0734
vn 0.7334 -0.6656 0.1381
vn 0.1667 -0.4145 0.8946
vn 0.6951 -0.4242 0.5804
vn 0.7777 -0.3584 0.5165
vn -0.9996 -0.0293 0.0000
vn -0.9887 0.0836 -0.1240
vn -0.9990 0.0442 0.0000
vn -0.9887 0.0836 0.1240
vn -0.9254 0.3309 -0.1850
vn -0.8621 -0.0325 0.5058
usemtl Material
s off
f 1/1/1 14/2/1 13/3/1
f 2/4/2 14/2/2 16/5/2
f 1/1/3 13/3/3 18/6/3
f 1/1/4 18/6/4 20/7/4
f 1/1/5 20/7/5 17/8/5
f 2/4/6 16/5/6 23/9/6
f 3/10/7 15/11/7 25/12/7
f 4/13/8 19/14/8 27/15/8
f 5/16/9 21/17/9 29/18/9
f 6/19/10 22/20/10 31/21/10
f 2/4/11 23/9/11 26/22/11
f 3/10/12 25/12/12 28/23/12
f 9/24/13 30/25/13 47/26/13 45/27/13
f 5/16/14 29/18/14 32/28/14
f 6/19/15 31/21/15 24/29/15
f 7/30/16 33/31/16 38/32/16
f 8/33/17 34/34/17 40/35/17
f 9/24/18 35/36/18 41/37/18
f 10/38/19 36/39/19 42/40/19
f 11/41/20 37/42/20 39/43/20
f 39/43/21 42/40/21 12/44/21
f 39/43/22 37/42/22 42/40/22
f 37/42/23 10/38/23 42/40/23
f 42/40/24 41/37/24 12/44/24
f 42/40/25 36/39/25 41/37/25
f 36/39/26 9/24/26 41/37/26
f 41/37/27 40/35/27 12/44/27
f 41/37/28 35/36/28 40/35/28
f 35/36/29 8/33/29 40/35/29
f 40/35/30 38/32/30 12/44/30
f 40/35/31 34/34/31 38/32/31
f 34/34/32 7/30/32 38/32/32
f 38/32/33 39/43/33 12/44/33
f 38/32/34 33/31/34 39/43/34
f 33/31/35 11/41/35 39/43/35
f 24/29/36 37/42/36 11/41/36
f 24/29/37 31/21/37 37/42/37
f 31/21/38 10/38/38 37/42/38
f 32/28/39 36/39/39 10/38/39
f 32/28/40 29/18/40 36/39/40
f 29/18/41 9/24/41 36/39/41
f 8/33/42 35/36/42 48/45/42 44/46/42
f 4/13/43 27/15/43 46/47/43 43/48/43
f 30/25/44 4/13/44 43/48/44 47/26/44
f 28/23/45 34/34/45 8/33/45
f 28/23/46 25/12/46 34/34/46
f 25/12/47 7/30/47 34/34/47
f 26/22/48 33/31/48 7/30/48
f 26/22/49 23/9/49 33/31/49
f 23/9/50 11/41/50 33/31/50
f 31/21/51 32/28/51 10/38/51
f 31/21/52 22/20/52 32/28/52
f 22/20/53 5/16/53 32/28/53
f 29/18/54 30/25/54 9/24/54
f 29/18/55 21/17/55 30/25/55
f 21/17/56 4/13/56 30/25/56
f 27/15/57 28/23/57 8/33/57
f 27/15/58 19/14/58 28/23/58
f 19/14/59 3/10/59 28/23/59
f 25/12/60 26/22/60 7/30/60
f 25/12/61 15/11/61 26/22/61
f 15/11/62 2/4/62 26/22/62
f 23/9/63 24/29/63 11/41/63
f 23/9/64 16/5/64 24/29/64
f 16/5/65 6/19/65 24/29/65
f 17/8/66 22/20/66 6/19/66
f 17/8/67 20/7/67 22/20/67
f 20/7/68 5/16/68 22/20/68
f 20/7/69 21/17/69 5/16/69
f 20/7/70 18/6/70 21/17/70
f 18/6/71 4/13/71 21/17/71
f 18/6/72 19/14/72 4/13/72
f 18/6/73 13/3/73 19/14/73
f 13/3/74 3/10/74 19/14/74
f 16/5/75 17/8/75 6/19/75
f 16/5/76 14/2/76 17/8/76
f 14/2/77 1/1/77 17/8/77
f 13/3/78 15/11/78 3/10/78
f 13/3/79 14/2/79 15/11/79
f 14/2/80 2/4/80 15/11/80
f 43/48/81 46/47/81 47/26/81
f 47/26/82 48/45/82 45/27/82
f 47/26/83 46/47/83 48/45/83
f 46/47/84 44/46/84 48/45/84
f 35/36/85 9/24/85 45/27/85 48/45/85
f 27/15/86 8/33/86 44/46/86 46/47/86
